<svg width="228" height="44" viewBox="0 0 228 44" fill="none" xmlns="http://www.w3.org/2000/svg">
<path d="M0 22C0 12.6177 0 7.92655 2.47976 4.69486C3.11817 3.86288 3.86288 3.11817 4.69486 2.47976C7.92655 0 12.6177 0 22 0H206C215.382 0 220.073 0 223.305 2.47976C224.137 3.11817 224.882 3.86288 225.52 4.69486C228 7.92655 228 12.6177 228 22C228 31.3823 228 36.0735 225.52 39.3051C224.882 40.1371 224.137 40.8818 223.305 41.5202C220.073 44 215.382 44 206 44H22C12.6177 44 7.92655 44 4.69486 41.5202C3.86288 40.8818 3.11817 40.1371 2.47976 39.3051C0 36.0735 0 31.3823 0 22Z" fill="black"/>
<rect x="28" y="10" width="24" height="24" rx="12" fill="#FC3F1D"/>
<path d="M41.6911 29.212H44.1981V14.812H40.5515C36.8841 14.812 34.9572 16.6975 34.9572 19.4739C34.9572 21.6909 36.0139 22.9962 37.8994 24.3429L34.6257 29.212H37.34L40.9866 23.7628L39.7227 22.9133C38.1895 21.8773 37.4436 21.0693 37.4436 19.3288C37.4436 17.7956 38.521 16.7596 40.5722 16.7596H41.6911V29.212Z" fill="white"/>
<path d="M65.396 15.528H69.3C70.6653 15.528 71.7053 15.7413 72.42 16.168C73.1347 16.5947 73.492 17.3147 73.492 18.328C73.492 18.744 73.4333 19.1067 73.316 19.416C73.1987 19.7147 73.028 19.976 72.804 20.2C72.5907 20.4133 72.3293 20.5893 72.02 20.728C71.7107 20.8667 71.3693 20.9733 70.996 21.048C71.956 21.1653 72.6813 21.4267 73.172 21.832C73.6627 22.2373 73.908 22.856 73.908 23.688C73.908 24.2853 73.7907 24.7973 73.556 25.224C73.3213 25.64 72.996 25.9813 72.58 26.248C72.164 26.504 71.6733 26.696 71.108 26.824C70.5427 26.9413 69.9293 27 69.268 27H65.396V15.528ZM67.332 17.208V20.264H69.396C70.036 20.264 70.5533 20.1307 70.948 19.864C71.3427 19.5867 71.54 19.1547 71.54 18.568C71.54 18.0347 71.3587 17.6773 70.996 17.496C70.644 17.304 70.1427 17.208 69.492 17.208H67.332ZM67.332 21.928V25.336H69.46C69.8227 25.336 70.1533 25.3093 70.452 25.256C70.7507 25.192 71.0067 25.096 71.22 24.968C71.4333 24.8293 71.5987 24.6533 71.716 24.44C71.8333 24.216 71.892 23.944 71.892 23.624C71.892 22.9947 71.684 22.5573 71.268 22.312C70.8627 22.056 70.2067 21.928 69.3 21.928H67.332Z" fill="white"/>
<path d="M79.2727 27.16C78.6861 27.16 78.1421 27.064 77.6407 26.872C77.1394 26.68 76.7021 26.4027 76.3287 26.04C75.9661 25.6667 75.6781 25.2133 75.4647 24.68C75.2621 24.1467 75.1607 23.5333 75.1607 22.84C75.1607 22.1467 75.2621 21.5333 75.4647 21C75.6781 20.4667 75.9661 20.0187 76.3287 19.656C76.7021 19.2827 77.1394 19.0053 77.6407 18.824C78.1421 18.632 78.6861 18.536 79.2727 18.536C79.8594 18.536 80.4034 18.632 80.9047 18.824C81.4061 19.0053 81.8434 19.2827 82.2167 19.656C82.5901 20.0187 82.8834 20.4667 83.0967 21C83.3101 21.5333 83.4167 22.1467 83.4167 22.84C83.4167 23.5333 83.3101 24.1467 83.0967 24.68C82.8834 25.2133 82.5901 25.6667 82.2167 26.04C81.8434 26.4027 81.4061 26.68 80.9047 26.872C80.4034 27.064 79.8594 27.16 79.2727 27.16ZM79.2727 25.608C79.9127 25.608 80.4407 25.384 80.8567 24.936C81.2834 24.488 81.4967 23.7893 81.4967 22.84C81.4967 21.9013 81.2834 21.208 80.8567 20.76C80.4407 20.3013 79.9127 20.072 79.2727 20.072C78.6434 20.072 78.1154 20.3013 77.6887 20.76C77.2727 21.208 77.0647 21.9013 77.0647 22.84C77.0647 23.7893 77.2727 24.488 77.6887 24.936C78.1154 25.384 78.6434 25.608 79.2727 25.608Z" fill="white"/>
<path d="M88.7136 17.704C88.2656 17.704 87.8763 17.6453 87.5456 17.528C87.2256 17.4107 86.9536 17.2507 86.7296 17.048C86.5163 16.8347 86.3563 16.5893 86.2496 16.312C86.143 16.024 86.0896 15.72 86.0896 15.4H87.7216C87.7216 15.7733 87.807 16.0453 87.9776 16.216C88.159 16.376 88.4043 16.456 88.7136 16.456C89.023 16.456 89.263 16.376 89.4336 16.216C89.6043 16.0453 89.6896 15.7733 89.6896 15.4H91.3376C91.3376 15.72 91.2843 16.024 91.1776 16.312C91.071 16.5893 90.9056 16.8347 90.6816 17.048C90.4683 17.2507 90.1963 17.4107 89.8656 17.528C89.535 17.6453 89.151 17.704 88.7136 17.704ZM86.8096 24.488L90.6496 18.696H92.4736V27H90.6336V21.24L86.8256 27H84.9696V18.696H86.8096V24.488Z" fill="white"/>
<path d="M98.2754 20.2V27H96.4194V20.2H93.9074V18.696H100.835V20.2H98.2754Z" fill="white"/>
<path d="M104.091 24.488L107.931 18.696H109.755V27H107.915V21.24L104.107 27H102.251V18.696H104.091V24.488Z" fill="white"/>
<path d="M119.184 27.16C118.512 27.16 117.91 27.064 117.376 26.872C116.843 26.6693 116.39 26.3867 116.016 26.024C115.643 25.6507 115.355 25.1973 115.152 24.664C114.95 24.1307 114.848 23.5227 114.848 22.84C114.848 22.168 114.95 21.5653 115.152 21.032C115.355 20.4987 115.643 20.0507 116.016 19.688C116.39 19.3147 116.848 19.032 117.392 18.84C117.936 18.6373 118.544 18.536 119.216 18.536C119.792 18.536 120.294 18.6 120.72 18.728C121.158 18.856 121.504 19.016 121.76 19.208V20.744C121.43 20.5307 121.067 20.3653 120.672 20.248C120.288 20.1307 119.84 20.072 119.328 20.072C117.611 20.072 116.752 20.9947 116.752 22.84C116.752 24.6853 117.595 25.608 119.28 25.608C119.824 25.608 120.288 25.5493 120.672 25.432C121.067 25.304 121.43 25.144 121.76 24.952V26.488C121.483 26.6693 121.136 26.8293 120.72 26.968C120.304 27.096 119.792 27.16 119.184 27.16Z" fill="white"/>
<path d="M127.097 19.128C127.097 18.52 127.204 17.992 127.417 17.544C127.631 17.0853 127.929 16.712 128.313 16.424C128.697 16.1253 129.156 15.9013 129.689 15.752C130.233 15.6027 130.836 15.528 131.497 15.528H135.225V27H133.273V22.584H131.497L128.569 27H126.313L129.545 22.296C128.713 22.0933 128.095 21.7253 127.689 21.192C127.295 20.648 127.097 19.96 127.097 19.128ZM133.273 20.968V17.208H131.481C130.756 17.208 130.175 17.352 129.737 17.64C129.311 17.9173 129.097 18.3973 129.097 19.08C129.097 19.752 129.289 20.2373 129.673 20.536C130.057 20.824 130.601 20.968 131.305 20.968H133.273Z" fill="white"/>
<path d="M142.845 23.496H139.341V27H137.485V18.696H139.341V21.992H142.845V18.696H144.701V27H142.845V23.496Z" fill="white"/>
<path d="M146.558 25.496C146.803 25.2827 146.995 24.9893 147.134 24.616C147.283 24.2427 147.401 23.7787 147.486 23.224C147.571 22.6587 147.635 22.0027 147.678 21.256C147.721 20.5093 147.758 19.656 147.79 18.696H153.87V25.496H155.118V29.368H153.502L153.358 27H147.63L147.486 29.368H145.854V25.496H146.558ZM152.014 25.496V20.2H149.39C149.337 21.512 149.246 22.6 149.118 23.464C149.001 24.3173 148.803 24.9947 148.526 25.496H152.014Z" fill="white"/>
<path d="M163.273 26.392C163.156 26.4667 163.012 26.552 162.841 26.648C162.67 26.7333 162.468 26.8133 162.233 26.888C161.998 26.9627 161.726 27.0267 161.417 27.08C161.108 27.1333 160.756 27.16 160.361 27.16C158.836 27.16 157.694 26.7813 156.937 26.024C156.19 25.2667 155.817 24.2053 155.817 22.84C155.817 22.168 155.918 21.5653 156.121 21.032C156.324 20.4987 156.606 20.0507 156.969 19.688C157.332 19.3147 157.764 19.032 158.265 18.84C158.766 18.6373 159.316 18.536 159.913 18.536C160.532 18.536 161.086 18.6373 161.577 18.84C162.078 19.0427 162.489 19.3467 162.809 19.752C163.129 20.1573 163.348 20.6587 163.465 21.256C163.593 21.8533 163.598 22.552 163.481 23.352H157.737C157.812 24.1093 158.062 24.68 158.489 25.064C158.916 25.4373 159.582 25.624 160.489 25.624C161.15 25.624 161.7 25.544 162.137 25.384C162.585 25.2133 162.964 25.0373 163.273 24.856V26.392ZM159.913 20.008C159.369 20.008 158.91 20.1733 158.537 20.504C158.164 20.8347 157.918 21.3253 157.801 21.976H161.705C161.726 21.304 161.577 20.808 161.257 20.488C160.937 20.168 160.489 20.008 159.913 20.008Z" fill="white"/>
<path d="M167.78 23.624H167.06V27H165.204V18.696H167.06V22.12H167.844L170.484 18.696H172.436L169.3 22.696L172.564 27H170.372L167.78 23.624Z" fill="white"/>
<path d="M177.231 27.16C176.559 27.16 175.956 27.064 175.423 26.872C174.89 26.6693 174.436 26.3867 174.063 26.024C173.69 25.6507 173.402 25.1973 173.199 24.664C172.996 24.1307 172.895 23.5227 172.895 22.84C172.895 22.168 172.996 21.5653 173.199 21.032C173.402 20.4987 173.69 20.0507 174.063 19.688C174.436 19.3147 174.895 19.032 175.439 18.84C175.983 18.6373 176.591 18.536 177.263 18.536C177.839 18.536 178.34 18.6 178.767 18.728C179.204 18.856 179.551 19.016 179.807 19.208V20.744C179.476 20.5307 179.114 20.3653 178.719 20.248C178.335 20.1307 177.887 20.072 177.375 20.072C175.658 20.072 174.799 20.9947 174.799 22.84C174.799 24.6853 175.642 25.608 177.327 25.608C177.871 25.608 178.335 25.5493 178.719 25.432C179.114 25.304 179.476 25.144 179.807 24.952V26.488C179.53 26.6693 179.183 26.8293 178.767 26.968C178.351 27.096 177.839 27.16 177.231 27.16Z" fill="white"/>
<path d="M187.16 15.528V27H185.224V15.528H187.16Z" fill="white"/>
<path d="M189.615 15.528H193.487C194.297 15.528 195.049 15.6187 195.743 15.8C196.447 15.9813 197.055 16.28 197.567 16.696C198.089 17.112 198.495 17.6613 198.783 18.344C199.081 19.0267 199.231 19.8693 199.231 20.872C199.231 21.8853 199.081 22.776 198.783 23.544C198.495 24.3013 198.084 24.936 197.551 25.448C197.028 25.96 196.404 26.3493 195.679 26.616C194.964 26.872 194.18 27 193.327 27H189.615V15.528ZM191.551 17.208V25.336H193.391C193.956 25.336 194.468 25.2507 194.927 25.08C195.396 24.9093 195.796 24.648 196.127 24.296C196.468 23.944 196.729 23.496 196.911 22.952C197.103 22.3973 197.199 21.7413 197.199 20.984C197.199 20.2373 197.108 19.624 196.927 19.144C196.745 18.6533 196.489 18.264 196.159 17.976C195.839 17.688 195.455 17.4907 195.007 17.384C194.559 17.2667 194.073 17.208 193.551 17.208H191.551Z" fill="white"/>
</svg>
