<?xml version="1.0" standalone="no"?>
<!DOCTYPE svg PUBLIC "-//W3C//DTD SVG 20010904//EN"
 "http://www.w3.org/TR/2001/REC-SVG-20010904/DTD/svg10.dtd">
<svg version="1.0" xmlns="http://www.w3.org/2000/svg"
 width="512.000000pt" height="512.000000pt" viewBox="0 0 512.000000 512.000000"
 preserveAspectRatio="xMidYMid meet">
<metadata>
Created by potrace 1.14, written by Peter Selinger 2001-2017
</metadata>
<g transform="translate(0.000000,512.000000) scale(0.100000,-0.100000)"
fill="#000000" stroke="none">
<path d="M2150 4713 c-6 -26 -15 -50 -19 -53 -4 -3 -22 -66 -40 -140 -19 -74
-37 -137 -41 -140 -3 -3 -12 -27 -19 -55 -7 -27 -15 -57 -17 -66 -4 -14 -24
-15 -173 -11 -195 5 -271 -2 -301 -28 l-22 -19 32 -33 c31 -31 119 -78 145
-78 7 0 15 -4 17 -9 2 -5 50 -23 107 -40 58 -17 106 -33 109 -35 6 -7 -8 -44
-22 -58 -14 -15 -66 -156 -66 -180 0 -9 -4 -18 -9 -20 -11 -3 -31 -146 -31
-215 0 -42 -1 -43 -27 -37 -16 4 -30 10 -33 14 -17 23 -80 39 -80 20 0 -5 6
-10 13 -10 7 0 18 -9 24 -20 7 -11 27 -26 43 -35 53 -27 69 -47 76 -92 3 -24
10 -43 15 -43 5 0 9 -8 9 -18 0 -34 52 -163 76 -189 13 -14 24 -31 24 -37 0
-6 19 -28 41 -48 23 -21 40 -40 38 -42 -12 -12 -448 -38 -554 -33 -128 6 -295
33 -295 48 0 5 -7 9 -16 9 -9 0 -49 10 -90 22 -65 19 -77 25 -88 52 -17 39
-44 67 -92 97 -21 13 -46 30 -54 39 -9 8 -28 24 -41 35 -13 12 -31 40 -39 64
-12 38 -12 50 5 117 10 41 22 74 25 74 12 0 21 79 14 115 -8 47 -57 70 -130
61 -104 -12 -153 -55 -176 -154 -7 -29 -16 -52 -20 -52 -5 0 -8 -29 -8 -65 0
-36 4 -65 8 -65 10 0 33 -82 35 -125 2 -28 0 -30 -38 -33 -112 -7 -170 -23
-199 -55 -16 -17 -32 -46 -37 -64 -7 -34 3 -101 18 -112 5 -3 15 -17 24 -30
14 -23 14 -28 0 -55 -9 -17 -19 -32 -23 -34 -15 -7 -9 -90 7 -96 8 -3 15 -12
15 -20 0 -8 14 -20 30 -28 32 -14 38 -24 18 -30 -6 -2 -13 -29 -16 -59 -3 -42
0 -59 12 -71 9 -9 16 -21 16 -25 0 -11 63 -73 74 -73 4 0 14 -7 22 -15 22 -22
81 -35 206 -46 68 -6 115 -14 120 -22 11 -18 580 -17 586 1 2 6 15 12 29 12
35 0 257 50 263 59 3 5 19 11 35 15 17 4 39 10 49 13 18 5 19 1 13 -84 -8
-104 10 -535 22 -543 9 -5 42 -259 63 -475 6 -71 15 -132 19 -135 3 -3 12 -75
18 -160 7 -85 17 -165 23 -177 6 -12 24 -25 42 -29 37 -8 119 -42 126 -53 6
-9 97 -37 170 -52 30 -6 57 -15 60 -20 12 -18 283 -30 449 -18 91 6 168 14
171 19 3 4 28 10 55 14 95 14 250 47 255 56 3 4 34 14 70 21 73 14 79 17 64
27 -6 4 -20 34 -32 67 -11 33 -24 68 -27 78 -7 16 5 17 151 17 l159 0 23 50
c12 27 22 54 22 60 0 5 4 10 9 10 17 0 30 58 21 92 -5 17 -13 34 -18 37 -4 3
-18 25 -29 49 l-21 43 33 33 c18 19 40 47 49 64 8 16 22 36 30 44 7 8 28 43
45 78 18 36 36 67 40 70 4 3 19 34 35 70 15 36 31 67 34 70 8 6 26 52 54 140
12 36 24 67 28 70 8 6 26 73 35 127 7 42 -10 89 -42 121 -7 8 -23 32 -34 54
-11 21 -26 41 -34 45 -8 3 -15 9 -15 15 0 9 -42 68 -70 98 -8 9 -35 40 -60 70
-69 83 -161 172 -270 263 -9 7 -33 23 -53 36 -21 13 -43 28 -50 34 -19 18 -68
47 -99 58 -16 6 -28 14 -28 18 0 4 -31 21 -70 36 -38 15 -70 31 -70 35 0 4
-38 20 -85 36 -47 15 -85 32 -85 36 0 4 -9 8 -20 8 -22 0 -24 -3 50 78 17 19
35 42 40 53 7 11 21 19 38 19 55 0 152 84 152 132 0 10 5 18 10 18 6 0 10 18
10 40 0 22 -4 40 -8 40 -4 0 -14 15 -20 34 -13 35 -4 74 25 104 10 11 43 108
43 129 0 4 80 7 178 5 134 -3 187 0 217 11 53 19 58 47 13 78 -18 13 -35 26
-38 30 -7 9 -100 49 -116 49 -7 0 -19 6 -27 14 -7 8 -41 22 -75 31 -57 16 -62
20 -62 45 0 16 4 30 9 32 5 2 23 68 41 148 17 79 35 147 39 150 4 3 20 65 36
138 15 72 31 132 35 132 4 0 10 18 14 40 3 23 12 59 20 80 l14 40 -683 0 -683
0 -12 -47z m105 -544 c50 -6 92 -15 93 -20 2 -5 13 -9 24 -9 39 0 363 -53 368
-60 3 -4 60 -17 128 -30 135 -26 153 -41 86 -74 -36 -16 -36 -18 -18 -34 11
-9 37 -30 59 -47 52 -38 73 -62 92 -105 8 -19 19 -37 23 -40 5 -3 12 -23 16
-45 6 -35 5 -38 -8 -25 -8 8 -26 40 -40 70 -15 30 -40 65 -57 78 -17 12 -31
28 -31 36 0 17 -50 40 -62 28 -5 -5 2 -19 16 -33 52 -50 59 -57 90 -90 18 -19
41 -56 52 -82 10 -26 22 -47 27 -47 4 0 7 -7 7 -15 0 -33 -21 -12 -50 50 -17
36 -34 65 -38 65 -4 0 -21 14 -39 30 -18 17 -39 30 -48 30 -26 0 -13 -33 18
-48 15 -7 34 -26 42 -43 9 -16 20 -29 25 -29 4 0 15 -12 23 -27 8 -16 22 -41
31 -58 14 -26 14 -30 1 -33 -8 -2 -15 -7 -15 -12 0 -13 28 -63 40 -70 15 -9
16 -93 1 -98 -6 -2 -11 -9 -11 -15 0 -7 -15 -27 -32 -46 -25 -28 -40 -35 -80
-39 -39 -4 -52 -10 -68 -32 -11 -16 -20 -33 -20 -38 0 -5 -11 -17 -25 -26 -14
-9 -25 -22 -25 -29 0 -15 -99 -105 -136 -125 -13 -7 -24 -16 -24 -21 0 -4 -10
-13 -22 -19 -22 -10 -21 -11 9 -11 37 -1 84 15 95 32 5 8 8 6 8 -7 0 -20 -37
-86 -49 -86 -3 0 -20 -12 -37 -28 -58 -52 -196 -92 -271 -77 l-38 8 53 12 c73
17 76 25 9 25 -31 0 -57 5 -57 10 0 6 -10 10 -22 10 -38 0 -164 43 -178 61 -3
3 -24 18 -47 33 -24 14 -43 30 -43 34 0 4 -16 18 -35 31 -19 13 -35 29 -35 35
0 6 -13 26 -29 43 -28 31 -71 111 -86 163 -4 14 -12 28 -17 31 -5 3 -12 25
-15 48 -4 31 -2 41 8 40 34 -1 52 -18 66 -59 20 -58 43 -77 60 -47 7 12 12 16
13 10 0 -7 5 -13 11 -13 6 0 24 -9 40 -20 15 -12 43 -26 61 -32 18 -6 36 -16
40 -22 4 -7 42 -11 91 -11 66 0 87 4 101 18 10 9 23 17 30 17 18 0 118 51 140
72 11 10 25 18 32 18 19 0 34 -25 27 -48 -6 -24 11 -31 20 -8 3 7 9 34 12 60
7 43 11 47 52 66 25 11 61 36 81 55 20 19 40 35 44 35 4 0 8 7 8 15 0 8 -7 15
-15 15 -8 0 -15 -4 -15 -9 0 -35 -319 -36 -340 -1 -4 7 -36 14 -72 17 -51 4
-68 2 -80 -11 -20 -19 -28 -20 -28 -3 0 6 -9 23 -20 37 -11 14 -20 34 -20 46
0 24 37 104 48 104 8 0 25 39 47 108 16 50 0 54 -25 6 -8 -16 -17 -31 -21 -34
-3 -3 -16 -22 -28 -43 -13 -21 -34 -48 -46 -60 -12 -12 -30 -34 -39 -48 -15
-23 -14 -28 2 -61 l19 -36 -110 -4 c-67 -3 -111 -9 -116 -16 -4 -7 -29 -15
-56 -18 l-48 -7 6 124 c5 112 20 196 38 209 3 3 16 36 29 74 12 38 30 76 39
85 9 10 30 43 46 74 17 31 33 57 36 57 4 0 14 16 23 35 20 41 31 42 181 24z
m827 -167 c2 -4 32 -15 68 -23 l65 -16 -3 -39 c-4 -61 -25 -164 -33 -164 -4 0
-11 -15 -15 -32 l-7 -33 -14 50 c-8 27 -26 61 -40 75 -14 13 -31 37 -39 52 -8
16 -21 28 -29 28 -8 0 -22 12 -32 27 -17 25 -17 27 1 37 11 6 26 19 35 28 17
18 37 23 43 10z m-2342 -367 c11 -20 11 -37 1 -92 -20 -104 -24 -198 -12 -235
6 -18 33 -53 62 -78 84 -75 107 -99 121 -130 7 -17 16 -30 19 -30 10 0 36 -69
43 -115 7 -45 -17 -154 -38 -170 -19 -15 -39 -56 -30 -63 4 -4 9 -1 11 6 11
29 23 8 23 -38 0 -27 -4 -50 -9 -50 -5 0 -14 -20 -20 -44 -6 -24 -17 -49 -26
-56 -8 -7 -15 -19 -15 -26 0 -13 -94 -64 -118 -64 -6 0 -12 -5 -14 -12 -5 -15
-207 -16 -216 -1 -4 5 -16 13 -27 18 -14 6 21 11 110 15 144 7 175 17 205 65
24 39 25 63 4 93 -15 22 -15 26 6 66 29 54 21 106 -21 148 -32 33 -37 48 -14
48 27 0 48 47 42 93 -11 77 -32 111 -84 138 -26 13 -54 30 -61 36 -7 7 -25 16
-40 19 -43 11 -82 33 -82 48 0 8 -4 16 -10 18 -24 8 -52 113 -53 198 0 104 17
149 70 181 21 13 40 27 41 31 2 4 30 8 61 8 51 0 59 -3 71 -25z m1440 -123 c0
-5 11 -14 25 -20 21 -10 25 -19 25 -52 0 -33 -4 -42 -25 -52 -14 -6 -25 -15
-25 -20 0 -4 -9 -8 -20 -8 -11 0 -20 4 -20 9 0 5 -32 12 -71 16 -89 9 -223 41
-227 55 -2 5 -11 10 -20 10 -9 1 -28 7 -42 15 -23 12 -20 13 36 8 39 -3 86 0
132 11 39 9 91 16 116 16 26 0 46 5 46 10 0 6 16 10 35 10 19 0 35 -4 35 -8z
m320 -37 c74 -17 198 -17 245 0 16 6 15 3 -7 -19 -26 -25 -128 -76 -153 -76
-8 0 -15 -6 -18 -12 -6 -19 -240 -15 -262 4 -47 39 -53 46 -48 72 11 58 84 67
243 31z m-240 -107 c0 -5 -7 -8 -15 -8 -17 0 -18 2 -9 25 5 13 8 14 15 3 5 -7
9 -16 9 -20z m-147 -18 c32 -5 137 -10 233 -12 160 -2 172 -3 147 -16 -15 -8
-30 -18 -33 -21 -17 -21 -122 -46 -190 -45 -72 0 -180 26 -180 43 0 4 -18 13
-40 20 -23 7 -40 18 -40 26 0 18 22 19 103 5z m-1523 -200 c0 -5 6 -10 14 -10
31 0 119 -50 142 -81 28 -38 34 -118 10 -138 -17 -15 -81 -5 -100 15 -25 24
-132 34 -238 23 -54 -6 -105 -8 -113 -5 -23 9 -39 84 -26 128 9 29 19 40 46
49 19 7 35 17 35 21 0 4 52 8 115 8 70 0 115 -4 115 -10z m2333 -111 c37 -11
67 -26 68 -32 4 -41 -16 -127 -29 -127 -4 0 -15 -20 -25 -44 -21 -50 -87 -124
-134 -152 -18 -10 -33 -22 -33 -26 0 -10 -106 -58 -126 -58 -8 0 -14 -4 -14
-10 0 -5 -9 -10 -20 -10 -17 0 -19 4 -13 28 4 15 8 43 8 62 l0 35 -91 9 c-71
7 -94 13 -103 27 -10 18 -7 19 57 19 66 0 172 23 172 38 0 4 13 13 29 20 35
15 98 77 118 117 9 16 22 35 29 43 8 7 14 22 14 32 0 24 10 50 19 50 4 0 38
-9 74 -21z m-743 -134 c28 -14 50 -31 50 -39 0 -19 69 -78 108 -91 l34 -12
-32 -7 c-22 -4 -47 0 -77 14 -25 11 -52 20 -59 20 -8 0 -14 5 -14 10 0 6 -9
10 -19 10 -16 0 -21 -9 -27 -45 -3 -25 -9 -45 -13 -45 -9 0 -28 53 -36 102 -7
39 10 108 26 108 5 0 32 -11 59 -25z m-1542 -10 c28 -9 52 -20 52 -24 0 -5 10
-11 23 -15 12 -3 37 -19 55 -36 26 -25 32 -39 32 -71 0 -58 -27 -68 -123 -46
-40 10 -82 17 -94 17 -13 0 -23 5 -23 10 0 6 -32 10 -75 10 -43 0 -75 -4 -75
-10 0 -20 -72 -11 -91 12 -20 22 -27 120 -10 146 21 33 226 37 329 7z m413
-97 c8 -53 8 -82 -1 -117 -25 -92 -42 -141 -51 -141 -5 0 -9 -5 -9 -11 0 -12
-52 -79 -61 -79 -4 0 -21 -13 -39 -30 -33 -31 -80 -40 -110 -20 -13 8 -12 10
3 10 9 0 26 9 37 20 11 11 24 20 29 20 13 0 57 59 66 88 3 12 10 22 15 22 16
0 50 130 50 190 0 43 5 63 20 80 11 13 20 37 21 54 0 30 1 30 10 7 5 -13 14
-55 20 -93z m-478 -120 c42 -6 77 -15 77 -19 0 -4 15 -10 33 -14 78 -17 97
-57 50 -110 l-26 -30 -139 0 c-81 0 -142 4 -146 10 -4 6 -20 17 -37 25 -20 11
-31 26 -36 50 -8 36 9 84 33 93 23 10 112 7 191 -5z m1722 -118 c34 -22 76
-26 107 -9 28 15 91 -16 83 -40 -9 -29 -34 -287 -41 -415 -4 -69 -11 -126 -16
-126 -4 0 -8 -61 -8 -135 0 -83 4 -135 10 -135 6 0 10 -28 10 -65 0 -52 10
-99 27 -124 1 -2 24 -8 50 -13 51 -9 263 8 263 22 0 4 21 10 48 13 71 9 232
49 232 59 0 4 6 8 14 8 12 0 15 -28 18 -147 2 -95 0 -153 -7 -161 -6 -7 -44
-19 -85 -28 -41 -8 -77 -19 -80 -24 -8 -12 -180 -39 -324 -50 -85 -6 -168 -6
-241 0 -133 12 -266 36 -275 50 -3 5 -36 19 -72 30 -37 11 -74 27 -82 35 -8 8
-19 15 -24 15 -21 0 -36 36 -48 118 -8 48 -14 104 -14 125 0 20 -4 37 -9 37
-5 0 -11 23 -13 50 -1 28 1 50 5 50 13 0 65 -29 69 -38 1 -4 33 -21 71 -37 37
-15 67 -32 67 -37 0 -4 16 -8 35 -8 28 0 36 4 39 23 3 12 7 168 9 346 3 237 7
326 15 329 7 2 12 20 12 39 0 35 27 225 35 251 7 20 86 15 120 -8z m1045 -471
c3 -3 22 -12 43 -18 33 -11 51 -31 28 -31 -6 0 -24 -29 -42 -65 -17 -36 -35
-65 -39 -65 -4 0 -20 -31 -35 -70 -15 -38 -31 -70 -35 -70 -13 0 -70 -158 -70
-193 0 -23 -6 -37 -16 -41 -15 -6 -16 7 -11 140 3 81 9 149 14 153 5 3 22 72
37 152 l29 147 46 -17 c25 -9 48 -19 51 -22z m-63 -639 c26 -27 54 -50 61 -50
7 0 15 -6 18 -14 3 -9 33 -19 76 -26 69 -12 71 -13 51 -29 -26 -20 -53 -73
-53 -104 0 -35 21 -72 51 -89 36 -21 61 -7 53 30 -10 39 -14 44 -30 31 -19
-16 -44 -4 -44 22 0 23 48 79 67 79 7 0 13 5 13 10 0 6 6 10 14 10 9 0 21 -25
32 -66 15 -56 16 -73 5 -113 -20 -78 -33 -83 -197 -77 -77 3 -147 8 -156 11
-9 4 -23 34 -33 68 -10 34 -22 65 -29 69 -7 5 -11 44 -11 111 0 84 3 107 17
120 9 10 20 26 23 37 9 29 18 25 72 -30z"/>
<path d="M2067 4033 c-20 -14 -37 -30 -37 -35 0 -14 28 -9 33 6 3 8 22 18 41
22 38 7 46 18 20 28 -9 3 -16 6 -17 6 -1 0 -19 -12 -40 -27z"/>
<path d="M2580 4049 l-25 -10 31 -14 c17 -7 52 -33 77 -58 51 -49 62 -39 25
22 -24 39 -57 71 -73 70 -5 0 -21 -5 -35 -10z"/>
<path d="M2053 3856 c-38 -40 -29 -146 12 -146 38 0 59 82 35 144 -12 32 -19
32 -47 2z"/>
<path d="M2522 3830 c-18 -4 -35 -10 -38 -12 -10 -11 9 -38 28 -38 28 0 125
-48 132 -65 11 -29 36 -17 36 18 0 54 -10 73 -46 91 -37 17 -60 19 -112 6z"/>
<path d="M2935 3680 c10 -11 23 -20 29 -20 6 0 21 -16 34 -35 23 -37 42 -45
42 -20 0 8 -5 15 -10 15 -6 0 -13 8 -17 18 -11 31 -46 62 -71 62 -24 0 -25 -1
-7 -20z"/>
<path d="M2927 3614 c-10 -10 29 -73 46 -74 19 0 21 8 8 43 -8 22 -43 41 -54
31z"/>
<path d="M2180 3150 c11 -20 60 -34 101 -28 16 2 25 11 27 26 3 21 0 22 -68
22 -67 0 -70 -1 -60 -20z"/>
</g>
</svg>
